PathFileType	4	(X/Y/Z)	C:/Users/beibeiliu/ov580/test_trc/capture2\sequence.7_training_dense_left.trc
DataRate	CameraRate	NumFrames	NumMarkers	Units	OrigDataRate	OrigDataStartFrame	OrigNumFrames
120	120	11	19	mm	120	201	400
Frame#	Time	ThumbCMC			ThumbMCP			ThumbIP			ThumbTip			IndexMCP			IndexPIP			IndexTip			MiddleMCP			MiddlePIP			MiddleTip			RingMCP			RingPIP			RingTip			PinkyMCP			PinkyPIP			PinkyTip			BackHand1			BackHand2			BackHand3	
		X0	Y0	Z0	X1	Y1	Z1	X2	Y2	Z2	X3	Y3	Z3	X4	Y4	Z4	X5	Y5	Z5	X6	Y6	Z6	X7	Y7	Z7	X8	Y8	Z8	X9	Y9	Z9	X10	Y10	Z10	X11	Y11	Z11	X12	Y12	Z12	X13	Y13	Z13	X14	Y14	Z14	X15	Y15	Z15	X16	Y16	Z16	X17	Y17	Z17	X18	Y18	Z18	
200	1.66667	-101.348	72.647	-0.535146	-82.8283	88.9729	-5.11412	-65.8238	109.699	-2.25083	-55.9399	128.043	-6.4649	-89.2589	122.493	-55.9312	-70.9834	104.288	-68.7567	-81.4561	75.9234	-49.774	-106.14	113.652	-68.5082	-82.4903	87.9473	-76.5106	-99.1912	67.3715	-52.536	-115.187	103.565	-75.0686	-97.7407	78.1106	-82.7686	-107.82	63.3736	-51.7604	-128.026	91.0216	-81.8215	-109.493	68.1842	-82.473	-118.77	52.0418	-53.4	-152.349	87.6505	-36.888	-159.402	62.7762	-19.2602	-134.681	83.4645	-7.1398	
201	1.675	-100.121	70.4061	-0.716303	-79.3262	81.3609	-1.47418	-65.1255	101.218	-1.9273	-51.2735	119.016	-4.26743	-87.9712	118.727	-54.4351	-70.4261	97.0008	-70.2293	-81.5801	74.3517	-53.2995	-99.0175	114.176	-68.0128	-82.6954	85.702	-78.066	-97.0598	65.2409	-53.7522	-112.788	101.92	-81.9757	-98.2158	72.9653	-82.655	-111.262	60.8547	-52.65	-125.776	90.8582	-85.5325	-109.258	63.5051	-82.2168	-119.588	53.4577	-55.2689	-150.084	93.1625	-39.8858	-157.705	64.9078	-17.9941	-132.642	83.9769	-6.87464	
202	1.68333	-102.066	63.7366	-0.232269	-82.5763	81.1214	-8.39937	-64.1373	97.8095	-4.76989	-47.1197	112.41	-2.80987	-84.2573	115.739	-51.4518	-66.4616	94.179	-70.3453	-83.3108	71.043	-54.7631	-97.6645	112.154	-66.913	-80.0806	83.6799	-79.1672	-98.7219	62.8617	-57.7264	-108.98	102.248	-78.2519	-95.3864	76.5576	-84.4067	-107.797	59.8468	-57.0932	-122.663	90.0338	-85.7247	-110.382	66.2784	-85.7686	-119.717	51.8179	-56.4466	-146.588	94.282	-39.2375	-158.187	69.9874	-18.6331	-129.683	86.1674	-11.2975	
203	1.69167	-102.295	64.3328	-2.02848	-79.4259	76.4716	-6.53538	-60.5827	92.4362	-3.58017	-47.5163	106.45	-5.9019	-83.4343	111.985	-54.9114	-65.3101	92.1362	-71.5716	-84.6221	66.767	-55.8004	-97.1146	108.768	-68.3805	-80.6868	82.0994	-81.2135	-95.8221	61.0001	-56.9481	-111.705	99.5143	-81.6517	-96.8811	70.3215	-83.4442	-113.115	56.1371	-57.1739	-126.636	91.1773	-84.608	-110.873	64.2047	-85.6287	-119.315	52.4371	-60.1706	-148.566	94.5434	-42.287	-163.626	69.6446	-22.3778	-127.51	84.7679	-10.1649	
204	1.7	-107.146	61.2059	-5.66055	-82.5502	71.565	-8.34058	-64.8821	83.7111	-7.78846	-44.5978	100.975	-6.09955	-76.9998	107.316	-56.2387	-70.2662	84.8324	-74.4737	-87.84	63.3206	-54.3962	-97.2993	105.588	-72.1559	-83.3247	79.8896	-85.2998	-102.644	57.6551	-61.2563	-109.023	98.3111	-80.7866	-98.6338	67.9285	-85.8553	-112.953	54.0304	-62.7848	-126.907	91.1736	-86.695	-113.098	63.7926	-89.3268	-124.206	49.1692	-62.7298	-146.64	94.1071	-39.7242	-160.596	71.3135	-21.6907	-131.095	83.3855	-10.8812	
205	1.70833	-106.041	59.6745	-3.92639	-85.6846	65.176	-9.0479	-63.4856	83.3667	-9.31011	-45.2654	92.9442	-5.26321	-81.1865	104.379	-55.3128	-67.0665	80.5765	-73.0011	-89.0304	60.0784	-57.5615	-94.1911	103.61	-71.1368	-86.115	75.544	-87.0341	-105.074	55.7108	-59.9474	-109.55	96.5332	-86.7411	-101.579	65.4559	-89.4848	-111.806	53.1378	-63.078	-122.641	90.7255	-88.7775	-114.954	63.5031	-91.0011	-122.103	50.4088	-64.3357	-147.768	96.2502	-40.1141	-166.055	72.5169	-25.7211	-133.238	82.9216	-13.3188	
206	1.71667	-109.213	59.0507	-7.30883	-87.1524	64.1316	-11.9142	-65.6847	78.4337	-11.6088	-43.4263	90.2687	-5.84519	-82.2453	101.417	-59.7614	-70.1685	74.8249	-74.5647	-90.7576	56.6023	-56.6483	-92.9893	100.083	-73.5619	-89.0321	71.8197	-87.8405	-105.079	54.334	-60.9641	-111.799	96.271	-85.8298	-101.592	65.6611	-90.599	-119.436	53.3623	-62.9928	-128.112	91.0175	-88.507	-115.993	63.2343	-91.1498	-125.748	52.2646	-60.8203	-147.193	97.2023	-41.3449	-168.292	74.1724	-24.9654	-130.23	83.8362	-14.6884	
207	1.725	-113.847	56.4034	-7.90141	-88.9718	60.3057	-12.2727	-65.5023	74.5109	-9.88472	-46.2965	81.3981	-5.49829	-79.5134	97.8758	-60.8899	-70.4894	73.8443	-75.2891	-92.0524	55.4378	-59.1701	-94.2032	98.1175	-76.1726	-88.6879	70.279	-88.5469	-109.998	52.9866	-61.349	-107.652	94.1156	-84.6682	-105.948	64.9473	-93.8362	-118.158	52.6801	-65.7825	-128.027	89.7721	-94.1311	-119.634	60.893	-94.6175	-132.888	53.3025	-64.2384	-148.029	96.2758	-42.8911	-167.146	78.7613	-26.6168	-134.991	81.3311	-14.8515	
208	1.73333	-116.34	54.2604	-8.24129	-91.8679	60.7364	-14.9978	-66.158	69.9335	-9.18266	-44.1774	78.7478	-7.39115	-81.4591	96.0068	-62.6378	-70.9774	69.3484	-75.7145	-94.9491	53.6513	-59.8256	-95.9764	98.6579	-75.8784	-89.2487	68.8294	-87.7368	-113.636	54.3445	-60.4475	-112.116	95.2068	-88.4393	-104.086	62.9306	-90.0798	-121.862	52.9652	-63.8373	-125.059	90.7338	-91.6556	-119.666	60.8611	-91.5113	-131.502	53.553	-67.3649	-149.795	95.8694	-43.9595	-169.691	78.6288	-28.5006	-136.876	83.004	-17.8631	
209	1.74167	-117.692	55.3453	-9.95844	-94.4194	57.1621	-14.4154	-66.2196	69.9454	-11.6823	-47.7479	75.8546	-9.4485	-81.7362	95.3819	-59.7049	-74.7671	70.1246	-77.7514	-99.8602	54.9303	-60.5612	-96.5529	98.7822	-78.2695	-91.2658	67.3044	-89.9967	-110.097	53.3909	-60.8697	-109.699	95.7775	-86.3827	-103.546	65.0999	-93.4809	-122.071	53.6188	-64.5596	-127.651	90.7737	-94.9488	-123.316	61.0924	-94.8465	-134.91	57.0959	-63.7824	-150.135	99.7513	-45.8266	-165.04	83.3437	-29.1531	-138.29	84.9513	-17.1675	
210	1.75	-117.666	58.0846	-11.1508	-94.8454	56.85	-16.4472	-69.9679	66.8808	-14.4102	-47.1866	72.7979	-9.13793	-76.9675	92.5595	-61.2498	-74.2272	65.4661	-77.0274	-100.633	54.0556	-62.5916	-94.0272	96.9099	-78.8972	-89.813	69.9219	-90.0311	-115.503	55.0923	-61.8276	-111.374	94.7004	-89.7786	-105.338	66.6565	-93.9841	-122.722	53.9397	-67.4277	-129.266	93.517	-95.9725	-123.985	62.0481	-95.2152	-134.083	57.3211	-65.2503	-150.063	100.609	-42.9289	-170.943	81.3938	-28.8423	-134.352	86.4799	-18.7167	
